HIERARCHY
ROOT Hips
{
 OFFSET 0.000000 0.000000 0.000000
 CHANNELS 6 Xposition Yposition Zposition Yrotation Xrotation Zrotation
 JOINT Chest
 {
  OFFSET 0.000000 9.588913 -0.003946
  CHANNELS 3 Yrotation Xrotation Zrotation
  JOINT Chest2
  {
   OFFSET 0.000000 9.541882 0.008053
   CHANNELS 3 Yrotation Xrotation Zrotation
   JOINT Chest3
   {
    OFFSET 0.000000 9.501360 0.000000
    CHANNELS 3 Yrotation Xrotation Zrotation
    JOINT Chest4
    {
     OFFSET 0.000000 9.491660 0.000000
     CHANNELS 3 Yrotation Xrotation Zrotation
     JOINT Neck
     {
      OFFSET 0.000000 14.331917 0.000000
      CHANNELS 3 Yrotation Xrotation Zrotation
      JOINT Head
      {
       OFFSET 0.000000 8.884799 0.017034
       CHANNELS 3 Yrotation Xrotation Zrotation
       End Site
       {
        OFFSET 0.000000 16.896195 0.008993
       }
      }
     }
     JOINT RightCollar
     {
      OFFSET -2.923010 9.499495 0.000000
      CHANNELS 3 Yrotation Xrotation Zrotation
      JOINT RightShoulder
      {
       OFFSET -13.795216 0.000000 0.000000
       CHANNELS 3 Yrotation Xrotation Zrotation
       JOINT RightElbow
       {
        OFFSET -30.272209 0.000000 0.000000
        CHANNELS 3 Yrotation Xrotation Zrotation
        JOINT RightWrist
        {
         OFFSET -24.478199 0.000000 0.000000
         CHANNELS 3 Yrotation Xrotation Zrotation
         End Site
         {
          OFFSET -18.090752 0.000000 0.000000
         }
        }
       }
      }
     }
     JOINT LeftCollar
     {
      OFFSET 2.923010 9.499495 0.000000
      CHANNELS 3 Yrotation Xrotation Zrotation
      JOINT LeftShoulder
      {
       OFFSET 13.795216 0.000000 0.000000
       CHANNELS 3 Yrotation Xrotation Zrotation
       JOINT LeftElbow
       {
        OFFSET 30.272209 0.000000 0.000000
        CHANNELS 3 Yrotation Xrotation Zrotation
        JOINT LeftWrist
        {
         OFFSET 24.478199 0.000000 0.000000
         CHANNELS 3 Yrotation Xrotation Zrotation
         End Site
         {
          OFFSET 18.090752 0.000000 0.000000
         }
        }
       }
      }
     }
    }
   }
  }
 }
 JOINT RightHip
 {
  OFFSET -7.826875 0.019532 0.001973
  CHANNELS 3 Yrotation Xrotation Zrotation
  JOINT RightKnee
  {
   OFFSET 0.000000 -40.546152 -0.001885
   CHANNELS 3 Yrotation Xrotation Zrotation
   JOINT RightAnkle
   {
    OFFSET 0.000000 -39.417092 -0.003189
    CHANNELS 3 Yrotation Xrotation Zrotation
    JOINT RightToe
    {
     OFFSET 0.000000 -7.579396 17.243563
     CHANNELS 3 Yrotation Xrotation Zrotation
     End Site
     {
      OFFSET 0.000000 -1.500329 6.694466
     }
    }
   }
  }
 }
 JOINT LeftHip
 {
  OFFSET 7.826875 0.019532 0.001973
  CHANNELS 3 Yrotation Xrotation Zrotation
  JOINT LeftKnee
  {
   OFFSET 0.000000 -40.546152 -0.001885
   CHANNELS 3 Yrotation Xrotation Zrotation
   JOINT LeftAnkle
   {
    OFFSET 0.000000 -39.417092 -0.003189
    CHANNELS 3 Yrotation Xrotation Zrotation
    JOINT LeftToe
    {
     OFFSET 0.000000 -7.579396 17.243563
     CHANNELS 3 Yrotation Xrotation Zrotation
     End Site
     {
      OFFSET 0.000000 -1.500329 6.694466
     }
    }
   }
  }
 }
}
MOTION
Frames: 15
Frame Time: 0.008333
0.000000 87.345680 0.000000 0.000000 -5.767889 0.000000 0.000000 11.653876 0.000000 0.000000 -5.885988 0.000000 0.000000 -0.000000 0.000000 0.000000 -0.000000 0.000000 0.000000 12.528808 0.000000 0.000000 0.711711 0.000000 0.000000 -0.000000 0.000000 0.000000 -0.000000 0.000000 2.309063 -0.000000 0.000000 -2.309063 -0.000000 -0.000000 0.000000 -0.000000 0.000000 0.000000 0.000000 0.000000 -2.309063 0.000000 0.000000 2.309063 -0.000000 0.000000 0.000000 8.520374 0.000000 0.000000 1.905768 0.000000 -0.000000 -4.658254 0.000000 0.000000 -0.000000 0.000000 0.000000 8.520374 0.000000 0.000000 1.905768 0.000000 -0.000000 -4.658254 0.000000 0.000000 -0.000000 0.000000
13.291449 88.853618 -3.087655 56.829976 -10.338298 0.498337 -5.888365 5.869394 0.834438 -3.346572 3.327850 0.394482 -4.181392 4.162964 0.462813 -3.346572 3.327850 0.394482 4.127359 23.200813 -4.044834 8.458360 7.710224 -8.330765 11.919899 -0.863080 -2.030760 8.401539 -7.824310 83.091364 3.642932 8.701405 2.011306 1.186456 -4.035502 -0.663993 4.232879 -0.835278 -3.923402 -12.469072 -10.410591 -87.565752 -0.359453 16.041156 0.339516 3.395984 4.147160 5.041126 -6.858015 12.349790 -3.686283 0.687462 1.855848 -0.462903 0.392567 -4.961523 2.750579 -0.018386 0.409718 0.001889 -4.863209 11.631312 5.196727 6.967826 3.125079 1.098332 -4.895257 -4.332377 -6.221399 -0.059813 -0.344485 -0.018129
13.291170 88.854098 -3.087707 56.852993 -10.340543 0.499032 -5.892621 5.866814 0.836250 -3.349086 3.327291 0.396593 -4.184517 4.162287 0.465435 -3.349086 3.327291 0.396593 4.132863 23.210235 -4.044404 8.467423 7.728185 -8.330648 11.924179 -0.852569 -2.024048 8.399449 -7.825649 83.098735 3.642528 8.693854 2.012303 1.185120 -4.032012 -0.666009 4.239930 -0.829728 -3.925894 -12.472627 -10.414380 -87.560012 -0.365184 16.044844 0.340208 3.397343 4.149622 5.038397 -6.862354 12.349580 -3.685203 0.694147 1.867615 -0.466507 0.374247 -4.974523 2.751421 -0.017927 0.405552 0.000695 -4.877185 11.631484 5.194144 6.963443 3.121225 1.096556 -4.902755 -4.329616 -6.222576 -0.059189 -0.343654 -0.017631
13.291020 88.854695 -3.087220 56.871516 -10.343545 0.499833 -5.894481 5.864953 0.837762 -3.350101 3.326882 0.398629 -4.185767 4.161795 0.467974 -3.350101 3.326882 0.398629 4.138163 23.219669 -4.042630 8.475783 7.746010 -8.328062 11.926361 -0.843739 -2.017757 8.396563 -7.825990 83.108301 3.639506 8.687512 2.015580 1.185485 -4.023424 -0.667305 4.245069 -0.825918 -3.929824 -12.476407 -10.416614 -87.551318 -0.370467 16.046479 0.338900 3.400799 4.154309 5.035682 -6.861387 12.349678 -3.682976 0.700966 1.880465 -0.469487 0.355114 -4.988064 2.750085 -0.016974 0.401422 0.000807 -4.886889 11.633648 5.191586 6.958469 3.116474 1.094695 -4.906436 -4.326382 -6.223400 -0.058587 -0.342936 -0.017262
13.292479 88.855391 -3.088192 56.884646 -10.346868 0.515619 -5.893618 5.862690 0.824066 -3.350736 3.326947 0.400889 -4.186541 4.161898 0.470793 -3.350736 3.326947 0.400889 4.144158 23.228748 -4.040359 8.485294 7.763198 -8.324785 11.928026 -0.837430 -2.012047 8.395829 -7.826947 83.120086 3.632304 8.682574 2.016239 1.188638 -4.015145 -0.664227 4.252512 -0.826513 -3.934608 -12.479508 -10.417504 -87.541970 -0.376275 16.045486 0.335941 3.406013 4.159568 5.035878 -6.857818 12.347488 -3.696545 0.703591 1.891342 -0.471148 0.337453 -4.976830 2.746821 -0.014359 0.375781 0.002967 -4.894587 11.637154 5.172150 6.952662 3.112142 1.092935 -4.906410 -4.345632 -6.222991 -0.054889 -0.321753 -0.015967
13.293058 88.856153 -3.085928 56.900716 -10.352225 0.513068 -5.894403 5.863736 0.826655 -3.351527 3.327633 0.403660 -4.187504 4.162780 0.474245 -3.351527 3.327633 0.403660 4.150958 23.237966 -4.038853 8.496432 7.780802 -8.323070 11.929820 -0.830792 -2.007646 8.397787 -7.829811 83.133372 3.623629 8.679310 2.015050 1.190153 -4.010000 -0.658462 4.264280 -0.830278 -3.939568 -12.482381 -10.415967 -87.533922 -0.383423 16.040515 0.332337 3.409143 4.164689 5.038988 -6.853747 12.352877 -3.690026 0.703544 1.900544 -0.472541 0.322317 -4.986717 2.741296 -0.014305 0.370056 0.004326 -4.899994 11.645791 5.174413 6.945874 3.102746 1.088581 -4.906805 -4.340932 -6.221797 -0.053962 -0.320330 -0.016532
13.294357 88.856932 -3.082980 56.913344 -10.358351 0.511250 -5.894257 5.864544 0.829086 -3.351729 3.328082 0.406375 -4.187732 4.163367 0.477634 -3.351729 3.328082 0.406375 4.157890 23.247804 -4.038242 8.507984 7.799662 -8.322949 11.932525 -0.821071 -2.005623 8.398495 -7.832548 83.151718 3.616777 8.680216 2.013204 1.188326 -4.008426 -0.652327 4.278245 -0.832373 -3.945213 -12.484014 -10.413395 -87.524118 -0.391957 16.035591 0.326591 3.411327 4.167014 5.042754 -6.846397 12.359584 -3.683988 0.702733 1.909270 -0.473569 0.307846 -4.995960 2.736519 -0.014910 0.364336 0.004651 -4.897707 11.657924 5.178595 6.937174 3.089291 1.081717 -4.910361 -4.334235 -6.218669 -0.052964 -0.319300 -0.017637
13.296170 88.857623 -3.079694 56.922563 -10.362581 0.511355 -5.893177 5.863443 0.831165 -3.351150 3.327401 0.408726 -4.186987 4.162537 0.480586 -3.351150 3.327401 0.408726 4.164509 23.258359 -4.038034 8.519018 7.819858 -8.323415 11.936369 -0.808766 -2.003650 8.397246 -7.831916 83.173218 3.613842 8.684005 2.012197 1.184474 -4.009682 -0.647190 4.291838 -0.829750 -3.951617 -12.482605 -10.410910 -87.512099 -0.402094 16.033490 0.319814 3.414407 4.164172 5.045655 -6.834863 12.362414 -3.680359 0.700001 1.922144 -0.471847 0.294058 -5.007399 2.731875 -0.015528 0.359390 0.003785 -4.889996 11.671210 5.183085 6.927183 3.070614 1.073340 -4.917342 -4.324647 -6.215418 -0.052193 -0.318827 -0.018411
13.298126 88.858132 -3.076314 56.934049 -10.362262 0.512797 -5.892998 5.860170 0.833081 -3.351183 3.325413 0.410472 -4.187012 4.160067 0.482786 -3.351183 3.325413 0.410472 4.171614 23.268772 -4.037659 8.530895 7.839823 -8.323712 11.941331 -0.797278 -1.999889 8.397950 -7.827748 83.193130 3.612783 8.686560 2.015683 1.181558 -4.012498 -0.644853 4.303891 -0.824860 -3.958014 -12.473821 -10.406410 -87.500130 -0.410712 16.033735 0.315147 3.413186 4.161604 5.046756 -6.826059 12.360182 -3.679289 0.696184 1.936377 -0.467799 0.280941 -5.020118 2.727404 -0.015930 0.355506 0.002095 -4.886950 11.681445 5.186441 6.917128 3.048721 1.065445 -4.927172 -4.313286 -6.213025 -0.051824 -0.318516 -0.019286
13.300532 88.858547 -3.072540 56.948839 -10.360359 0.515493 -5.894411 5.856553 0.834570 -3.352164 3.323121 0.411447 -4.188231 4.157213 0.484017 -3.352164 3.323121 0.411447 4.179690 23.278565 -4.037351 8.544579 7.858749 -8.324417 11.946920 -0.788533 -1.995267 8.401299 -7.821977 83.213715 3.612133 8.688389 2.021334 1.179960 -4.015544 -0.643402 4.316011 -0.820984 -3.963584 -12.457314 -10.398071 -87.489272 -0.416624 16.035742 0.312744 3.405594 4.162560 5.049064 -6.823103 12.357386 -3.680021 0.692225 1.949430 -0.464632 0.269411 -5.033474 2.723691 -0.016058 0.352710 0.000509 -4.892148 11.691298 5.185373 6.908539 3.024717 1.060393 -4.932607 -4.300733 -6.211686 -0.051244 -0.318176 -0.020347
13.303647 88.858988 -3.067764 56.963247 -10.360858 0.518587 -5.895742 5.854077 0.835439 -3.352974 3.321499 0.411961 -4.189238 4.155190 0.484667 -3.352974 3.321499 0.411961 4.187708 23.287917 -4.037362 8.558272 7.876885 -8.325714 11.952522 -0.782736 -1.990164 8.402925 -7.814967 83.239282 3.611039 8.690812 2.024176 1.178763 -4.016860 -0.639812 4.330278 -0.817968 -3.966258 -12.441137 -10.387036 -87.480312 -0.423409 16.037194 0.310880 3.397620 4.160702 5.053728 -6.821259 12.357667 -3.681115 0.690550 1.962570 -0.462237 0.257413 -5.047988 2.719100 -0.015810 0.350459 0.000130 -4.901014 11.704526 5.180031 6.903474 3.000629 1.059072 -4.930376 -4.288298 -6.212990 -0.050259 -0.317808 -0.020105
13.306999 88.859375 -3.062344 56.977301 -10.361024 0.522866 -5.896746 5.851675 0.835739 -3.353463 3.320132 0.412125 -4.189849 4.153485 0.484880 -3.353463 3.320132 0.412125 4.194752 23.296331 -4.038120 8.570473 7.893263 -8.328181 11.958602 -0.778603 -1.986272 8.400621 -7.807114 83.268933 3.608270 8.692910 2.024977 1.179366 -4.016176 -0.634483 4.345735 -0.816425 -3.967214 -12.429314 -10.375113 -87.472809 -0.428941 16.035731 0.311150 3.393514 4.155218 5.055913 -6.820830 12.358118 -3.683104 0.693850 1.975274 -0.460577 0.242778 -5.063825 2.713777 -0.015389 0.349124 0.000651 -4.911440 11.715328 5.171363 6.901535 2.981300 1.060766 -4.924344 -4.277860 -6.216844 -0.049419 -0.317855 -0.018573
13.310326 88.859673 -3.056518 56.994051 -10.359646 0.528404 -5.898681 5.848720 0.835911 -3.354506 3.318673 0.412064 -4.191154 4.151661 0.484808 -3.354506 3.318673 0.412064 4.201110 23.304113 -4.040353 8.581855 7.908553 -8.333172 11.963391 -0.773878 -1.983605 8.397147 -7.799791 83.298749 3.605961 8.694647 2.026524 1.180999 -4.014952 -0.629773 4.360148 -0.816872 -3.969250 -12.418003 -10.363203 -87.466936 -0.429354 16.033676 0.317137 3.394906 4.152423 5.055026 -6.825052 12.357469 -3.685948 0.699395 1.987496 -0.460627 0.227291 -5.080914 2.708839 -0.014974 0.348422 0.001320 -4.925783 11.721661 5.161528 6.898453 2.967298 1.063685 -4.920048 -4.269633 -6.221829 -0.049148 -0.318896 -0.017329
13.313459 88.859931 -3.049787 57.013065 -10.358309 0.532173 -5.900926 5.845577 0.836561 -3.355911 3.317148 0.412577 -4.192907 4.149761 0.485450 -3.355911 3.317148 0.412577 4.207224 23.312133 -4.043929 8.593115 7.924397 -8.340495 11.966580 -0.767413 -1.979926 8.392245 -7.791274 83.327915 3.607892 8.696505 2.029104 1.182117 -4.014993 -0.626498 4.371433 -0.817442 -3.973268 -12.404553 -10.352138 -87.462935 -0.423305 16.033331 0.327725 3.399996 4.152814 5.055217 -6.829955 12.357551 -3.685406 0.704676 1.999608 -0.462829 0.210519 -5.097711 2.703806 -0.014658 0.346768 0.002334 -4.942475 11.727918 5.155915 6.889979 2.954393 1.064800 -4.917762 -4.262721 -6.226699 -0.049421 -0.320241 -0.017025
13.316137 88.860152 -3.042005 57.032112 -10.356823 0.532655 -5.901819 5.842502 0.838061 -3.356607 3.315620 0.413996 -4.193764 4.147865 0.487232 -3.356607 3.315620 0.413996 4.213099 23.319742 -4.048028 8.604105 7.939513 -8.348726 11.968730 -0.760298 -1.975038 8.385303 -7.779794 83.359451 3.615946 8.698171 2.031913 1.181297 -4.015947 -0.624665 4.378075 -0.817786 -3.978460 -12.392677 -10.339981 -87.458129 -0.410793 16.028146 0.339737 3.402709 4.155404 5.056819 -6.833807 12.358343 -3.680100 0.708852 2.010760 -0.465780 0.194101 -5.112224 2.696998 -0.014616 0.343473 0.004106 -4.958421 11.734675 5.155468 6.876736 2.941777 1.063549 -4.910787 -4.256989 -6.231479 -0.049693 -0.320749 -0.016617
